<svg width="801" height="525" viewBox="0 0 801 525" fill="none" xmlns="http://www.w3.org/2000/svg" class="fence">
<path d="M786.206 202.894H13.7938C6.17656 202.894 0 196.64 0 188.927V133.066C0 125.353 6.17656 119.1 13.7938 119.1H786.208C793.825 119.1 800.002 125.353 800.002 133.066V188.927C800 196.641 793.823 202.894 786.206 202.894Z" fill="#D2B98F"/>
<path d="M786.206 468.238H13.7938C6.17656 468.238 0 461.984 0 454.272V398.41C0 390.698 6.17656 384.444 13.7938 384.444H786.208C793.825 384.444 800.002 390.698 800.002 398.41V454.272C800 461.986 793.823 468.238 786.206 468.238Z" fill="#D2B98F"/>

<!-- EERSTE KLEUR PLANKEN -->
<path  d="M96.5516 524.101H41.3797C33.7625 524.101 27.5859 517.847 27.5859 510.135V70.9743C27.5859 65.9118 28.9453 60.9458 31.5172 56.6031L63.0516 3.3899C65.7313 -1.12997 72.2 -1.12997 74.8797 3.3899L106.414 56.6031C108.986 60.9442 110.345 65.9118 110.345 70.9743V510.133C110.345 517.847 104.169 524.101 96.5516 524.101Z" fill="#FFDCA0"/>
<path d="M206.897 524.101H151.725C144.108 524.101 137.931 517.847 137.931 510.135V70.9743C137.931 65.9118 139.291 60.9458 141.863 56.6031L173.397 3.3899C176.077 -1.12997 182.545 -1.12997 185.225 3.3899L216.759 56.6031C219.331 60.9442 220.691 65.9118 220.691 70.9743V510.133C220.689 517.847 214.514 524.101 206.897 524.101Z" fill="#FFDCA0"/>
<path d="M317.241 524.101H262.069C254.452 524.101 248.275 517.847 248.275 510.135V70.9743C248.275 65.9118 249.634 60.9458 252.206 56.6031L283.741 3.3899C286.42 -1.12997 292.889 -1.12997 295.569 3.3899L327.103 56.6031C329.675 60.9442 331.034 65.9118 331.034 70.9743V510.133C331.034 517.847 324.859 524.101 317.241 524.101Z" fill="#FFDCA0"/>
<path d="M427.586 524.101H372.414C364.797 524.101 358.62 517.847 358.62 510.135V70.9743C358.62 65.9118 359.98 60.9458 362.552 56.6031L394.086 3.3899C396.766 -1.12997 403.234 -1.12997 405.914 3.3899L437.449 56.6031C440.02 60.9442 441.38 65.9118 441.38 70.9743V510.133C441.38 517.847 435.203 524.101 427.586 524.101Z" fill="#FFDCA0"/>
<path d="M537.931 524.101H482.759C475.142 524.101 468.966 517.847 468.966 510.135V70.9743C468.966 65.9118 470.325 60.9458 472.897 56.6031L504.431 3.3899C507.111 -1.12997 513.58 -1.12997 516.259 3.3899L547.794 56.6031C550.366 60.9442 551.725 65.9118 551.725 70.9743V510.133C551.723 517.847 545.548 524.101 537.931 524.101Z" fill="#FFDCA0"/>
<path d="M648.277 524.101H593.105C585.487 524.101 579.311 517.847 579.311 510.135V70.9743C579.311 65.9118 580.67 60.9458 583.242 56.6031L614.777 3.3899C617.456 -1.12997 623.925 -1.12997 626.605 3.3899L658.139 56.6031C660.711 60.9442 662.07 65.9118 662.07 70.9743V510.133C662.069 517.847 655.894 524.101 648.277 524.101Z" fill="#FFDCA0"/>
<path d="M758.62 524.101H703.448C695.831 524.101 689.655 517.847 689.655 510.135V70.9743C689.655 65.9118 691.014 60.9458 693.586 56.6031L725.12 3.3899C727.8 -1.12997 734.269 -1.12997 736.948 3.3899L768.483 56.6031C771.055 60.9442 772.414 65.9118 772.414 70.9743V510.133C772.414 517.847 766.237 524.101 758.62 524.101Z" fill="#FFDCA0"/>

<!-- RODE KLEUR PLANKEN -->
<path class="plank" d="M96.5516 524.101H41.3797C33.7625 524.101 27.5859 517.847 27.5859 510.135V70.9743C27.5859 65.9118 28.9453 60.9458 31.5172 56.6031L63.0516 3.3899C65.7313 -1.12997 72.2 -1.12997 74.8797 3.3899L106.414 56.6031C108.986 60.9442 110.345 65.9118 110.345 70.9743V510.133C110.345 517.847 104.169 524.101 96.5516 524.101Z" fill="#eb514b"/>
<path class="plank" d="M206.897 524.101H151.725C144.108 524.101 137.931 517.847 137.931 510.135V70.9743C137.931 65.9118 139.291 60.9458 141.863 56.6031L173.397 3.3899C176.077 -1.12997 182.545 -1.12997 185.225 3.3899L216.759 56.6031C219.331 60.9442 220.691 65.9118 220.691 70.9743V510.133C220.689 517.847 214.514 524.101 206.897 524.101Z" fill="#eb514b"/>
<path class="plank" d="M317.241 524.101H262.069C254.452 524.101 248.275 517.847 248.275 510.135V70.9743C248.275 65.9118 249.634 60.9458 252.206 56.6031L283.741 3.3899C286.42 -1.12997 292.889 -1.12997 295.569 3.3899L327.103 56.6031C329.675 60.9442 331.034 65.9118 331.034 70.9743V510.133C331.034 517.847 324.859 524.101 317.241 524.101Z" fill="#eb514b"/>
<path class="plank" d="M427.586 524.101H372.414C364.797 524.101 358.62 517.847 358.62 510.135V70.9743C358.62 65.9118 359.98 60.9458 362.552 56.6031L394.086 3.3899C396.766 -1.12997 403.234 -1.12997 405.914 3.3899L437.449 56.6031C440.02 60.9442 441.38 65.9118 441.38 70.9743V510.133C441.38 517.847 435.203 524.101 427.586 524.101Z" fill="#eb514b"/>
<path class="plank" d="M537.931 524.101H482.759C475.142 524.101 468.966 517.847 468.966 510.135V70.9743C468.966 65.9118 470.325 60.9458 472.897 56.6031L504.431 3.3899C507.111 -1.12997 513.58 -1.12997 516.259 3.3899L547.794 56.6031C550.366 60.9442 551.725 65.9118 551.725 70.9743V510.133C551.723 517.847 545.548 524.101 537.931 524.101Z" fill="#eb514b"/>
<path class="plank" d="M648.277 524.101H593.105C585.487 524.101 579.311 517.847 579.311 510.135V70.9743C579.311 65.9118 580.67 60.9458 583.242 56.6031L614.777 3.3899C617.456 -1.12997 623.925 -1.12997 626.605 3.3899L658.139 56.6031C660.711 60.9442 662.07 65.9118 662.07 70.9743V510.133C662.069 517.847 655.894 524.101 648.277 524.101Z" fill="#eb514b"/>
<path class="plank" d="M758.62 524.101H703.448C695.831 524.101 689.655 517.847 689.655 510.135V70.9743C689.655 65.9118 691.014 60.9458 693.586 56.6031L725.12 3.3899C727.8 -1.12997 734.269 -1.12997 736.948 3.3899L768.483 56.6031C771.055 60.9442 772.414 65.9118 772.414 70.9743V510.133C772.414 517.847 766.237 524.101 758.62 524.101Z" fill="#eb514b"/>




<path d="M68.9656 174.958C76.5837 174.958 82.7594 168.705 82.7594 160.992C82.7594 153.279 76.5837 147.026 68.9656 147.026C61.3475 147.026 55.1719 153.279 55.1719 160.992C55.1719 168.705 61.3475 174.958 68.9656 174.958Z" fill="#A5967D"/>
<path d="M68.9656 440.303C76.5837 440.303 82.7594 434.05 82.7594 426.336C82.7594 418.623 76.5837 412.37 68.9656 412.37C61.3475 412.37 55.1719 418.623 55.1719 426.336C55.1719 434.05 61.3475 440.303 68.9656 440.303Z" fill="#A5967D"/>
<path d="M179.311 174.958C186.929 174.958 193.105 168.705 193.105 160.992C193.105 153.279 186.929 147.026 179.311 147.026C171.693 147.026 165.517 153.279 165.517 160.992C165.517 168.705 171.693 174.958 179.311 174.958Z" fill="#A5967D"/>
<path d="M179.311 440.303C186.929 440.303 193.105 434.05 193.105 426.336C193.105 418.623 186.929 412.37 179.311 412.37C171.693 412.37 165.517 418.623 165.517 426.336C165.517 434.05 171.693 440.303 179.311 440.303Z" fill="#A5967D"/>
<path d="M289.655 174.958C297.273 174.958 303.448 168.705 303.448 160.992C303.448 153.279 297.273 147.026 289.655 147.026C282.037 147.026 275.861 153.279 275.861 160.992C275.861 168.705 282.037 174.958 289.655 174.958Z" fill="#A5967D"/>
<path d="M289.655 440.303C297.273 440.303 303.448 434.05 303.448 426.336C303.448 418.623 297.273 412.37 289.655 412.37C282.037 412.37 275.861 418.623 275.861 426.336C275.861 434.05 282.037 440.303 289.655 440.303Z" fill="#A5967D"/>
<path d="M400 174.958C407.618 174.958 413.794 168.705 413.794 160.992C413.794 153.279 407.618 147.026 400 147.026C392.382 147.026 386.206 153.279 386.206 160.992C386.206 168.705 392.382 174.958 400 174.958Z" fill="#A5967D"/>
<path d="M400 440.303C407.618 440.303 413.794 434.05 413.794 426.336C413.794 418.623 407.618 412.37 400 412.37C392.382 412.37 386.206 418.623 386.206 426.336C386.206 434.05 392.382 440.303 400 440.303Z" fill="#A5967D"/>
<path d="M510.345 174.958C517.963 174.958 524.139 168.705 524.139 160.992C524.139 153.279 517.963 147.026 510.345 147.026C502.727 147.026 496.552 153.279 496.552 160.992C496.552 168.705 502.727 174.958 510.345 174.958Z" fill="#A5967D"/>
<path d="M510.345 440.303C517.963 440.303 524.139 434.05 524.139 426.336C524.139 418.623 517.963 412.37 510.345 412.37C502.727 412.37 496.552 418.623 496.552 426.336C496.552 434.05 502.727 440.303 510.345 440.303Z" fill="#A5967D"/>
<path d="M620.689 174.958C628.307 174.958 634.483 168.705 634.483 160.992C634.483 153.279 628.307 147.026 620.689 147.026C613.071 147.026 606.895 153.279 606.895 160.992C606.895 168.705 613.071 174.958 620.689 174.958Z" fill="#A5967D"/>
<path d="M620.689 440.303C628.307 440.303 634.483 434.05 634.483 426.336C634.483 418.623 628.307 412.37 620.689 412.37C613.071 412.37 606.895 418.623 606.895 426.336C606.895 434.05 613.071 440.303 620.689 440.303Z" fill="#A5967D"/>
<path d="M731.034 174.958C738.652 174.958 744.828 168.705 744.828 160.992C744.828 153.279 738.652 147.026 731.034 147.026C723.416 147.026 717.241 153.279 717.241 160.992C717.241 168.705 723.416 174.958 731.034 174.958Z" fill="#A5967D"/>
<path d="M731.034 440.303C738.652 440.303 744.828 434.05 744.828 426.336C744.828 418.623 738.652 412.37 731.034 412.37C723.416 412.37 717.241 418.623 717.241 426.336C717.241 434.05 723.416 440.303 731.034 440.303Z" fill="#A5967D"/>
</svg>
